<svg width="120" height="61" viewBox="0 0 120 61" fill="none" xmlns="http://www.w3.org/2000/svg">
<path fill-rule="evenodd" clip-rule="evenodd" d="M20.3479 8.94141C19.6494 8.45478 18.9022 8.07645 18.1075 7.80606C17.3128 7.53567 16.4636 7.40047 15.5591 7.40047C14.4214 7.40047 13.3802 7.61344 12.4348 8.03938C11.4894 8.46459 10.6774 9.0428 9.99952 9.77256C9.32087 10.5027 8.78997 11.3575 8.40643 12.3373C8.02253 13.3174 7.83095 14.3616 7.83095 15.4697C7.83095 16.5785 8.02253 17.619 8.40643 18.5922C8.78997 19.5651 9.32087 20.4134 9.99952 21.1366C10.6774 21.8598 11.4894 22.4307 12.4348 22.8498C13.3802 23.2688 14.4214 23.4781 15.5591 23.4781C16.0384 23.4781 16.5148 23.4443 16.9875 23.3767C17.4602 23.3091 17.9638 23.2216 18.4981 23.1133V17.8014C18.4981 17.5448 18.5732 17.3319 18.7243 17.1625C18.875 16.9939 19.1008 16.9092 19.4025 16.9092H24.9931C25.1987 16.9092 25.4175 16.9902 25.6507 17.1527C25.8836 17.3148 26 17.5314 26 17.8014V27.6143C26 27.9792 25.8014 28.2765 25.4043 28.5062C24.7599 28.939 24.0477 29.3108 23.2666 29.6212C22.4856 29.9326 21.6702 30.1892 20.8206 30.3916C19.971 30.5944 19.1111 30.7467 18.2413 30.8477C17.371 30.9495 16.5251 31 15.7028 31C14.2504 31 12.8563 30.8176 11.5204 30.4523C10.1845 30.0878 8.93365 29.5674 7.76905 28.8918C6.60445 28.2158 5.54595 27.4082 4.59357 26.4688C3.64118 25.5297 2.82253 24.4885 2.13762 23.3466C1.45235 22.2043 0.924756 20.9741 0.554853 19.6563C0.184951 18.3385 0 16.9633 0 15.5307C0 14.0981 0.184951 12.7225 0.554853 11.4047C0.924756 10.0869 1.45235 8.85019 2.13762 7.69449C2.82253 6.53915 3.64118 5.48812 4.59357 4.54212C5.54595 3.59575 6.60445 2.78785 7.76905 2.11915C8.93365 1.45008 10.1845 0.929647 11.5204 0.557861C12.8563 0.186075 14.2504 0 15.7028 0C17.3471 0 18.8989 0.226779 20.3583 0.679609C21.8176 1.1328 23.1911 1.78479 24.4791 2.63594C24.712 2.77113 24.8903 2.9503 25.0137 3.17345C25.1371 3.39623 25.1091 3.64954 24.9312 3.93374L21.6017 8.67756C21.4234 8.89416 21.2454 9.0399 21.0675 9.11367C20.8892 9.18817 20.6493 9.13075 20.3479 8.94141Z" fill="white"/>
<path fill-rule="evenodd" clip-rule="evenodd" d="M80.5653 8.94141C79.8937 8.45478 79.1752 8.07645 78.4111 7.80606C77.6469 7.53567 76.8304 7.40047 75.9607 7.40047C74.8667 7.40047 73.8656 7.61344 72.9566 8.03938C72.0475 8.46459 71.2668 9.0428 70.6149 9.77256C69.9624 10.5027 69.4519 11.3575 69.0831 12.3373C68.714 13.3174 68.5298 14.3616 68.5298 15.4697C68.5298 16.5785 68.714 17.619 69.0831 18.5922C69.4519 19.5651 69.9624 20.4134 70.6149 21.1366C71.2668 21.8598 72.0475 22.4307 72.9566 22.8498C73.8656 23.2688 74.8667 23.4781 75.9607 23.4781C76.4216 23.4781 76.8796 23.4443 77.3341 23.3767C77.7886 23.3091 78.2729 23.2216 78.7866 23.1133V17.8014C78.7866 17.5448 78.8589 17.3319 79.0041 17.1625C79.149 16.9939 79.3662 16.9092 79.6563 16.9092H85.0318C85.2295 16.9092 85.4399 16.9902 85.6642 17.1527C85.8881 17.3148 86 17.5314 86 17.8014V27.6143C86 27.9792 85.8091 28.2765 85.4272 28.5062C84.8076 28.939 84.1228 29.3108 83.3718 29.6212C82.6207 29.9326 81.8368 30.1892 81.0198 30.3916C80.2029 30.5944 79.3761 30.7467 78.5397 30.8477C77.7029 30.9495 76.8895 31 76.0988 31C74.7024 31 73.3618 30.8176 72.0773 30.4523C70.7928 30.0878 69.5901 29.5674 68.4702 28.8918C67.3504 28.2158 66.3326 27.4082 65.4169 26.4688C64.5011 25.5297 63.714 24.4885 63.0554 23.3466C62.3965 22.2043 61.8892 20.9741 61.5335 19.6563C61.1778 18.3385 61 16.9633 61 15.5307C61 14.0981 61.1778 12.7225 61.5335 11.4047C61.8892 10.0869 62.3965 8.85019 63.0554 7.69449C63.714 6.53915 64.5011 5.48812 65.4169 4.54212C66.3326 3.59575 67.3504 2.78785 68.4702 2.11915C69.5901 1.45008 70.7928 0.929647 72.0773 0.557861C73.3618 0.186075 74.7024 0 76.0988 0C77.6799 0 79.172 0.226779 80.5752 0.679609C81.9785 1.1328 83.2991 1.78479 84.5376 2.63594C84.7615 2.77113 84.933 2.9503 85.0516 3.17345C85.1703 3.39623 85.1434 3.64954 84.9723 3.93374L81.7709 8.67756C81.5994 8.89416 81.4283 9.0399 81.2572 9.11367C81.0857 9.18817 80.8551 9.13075 80.5653 8.94141Z" fill="white"/>
<path fill-rule="evenodd" clip-rule="evenodd" d="M97 15.0203C97 16.1382 97.1973 17.1819 97.5918 18.1513C97.9864 19.1211 98.5395 19.9667 99.2512 20.6867C99.9629 21.4077 100.805 21.9733 101.777 22.384C102.749 22.795 103.82 23 104.99 23C106.159 23 107.233 22.795 108.213 22.384C109.192 21.9733 110.037 21.4077 110.749 20.6867C111.461 19.9667 112.014 19.1211 112.408 18.1513C112.803 17.1819 113 16.1382 113 15.0203C113 13.9158 112.803 12.8753 112.408 11.899C112.014 10.9227 111.461 10.0706 110.749 9.34304C110.037 8.61586 109.192 8.04368 108.213 7.62614C107.233 7.20895 106.159 7 104.99 7C103.82 7 102.749 7.20895 101.777 7.62614C100.805 8.04368 99.9629 8.61586 99.2512 9.34304C98.5395 10.0706 97.9864 10.9227 97.5918 11.899C97.1973 12.8753 97 13.9158 97 15.0203ZM89 15.5307C89 14.0981 89.1823 12.7225 89.5473 11.4047C89.912 10.0869 90.4324 8.85019 91.1083 7.69449C91.7839 6.53879 92.5916 5.48812 93.5312 4.54175C94.4704 3.59575 95.5146 2.78785 96.6634 2.11878C97.8122 1.45008 99.0456 0.929647 100.364 0.557498C101.682 0.186075 103.057 0 104.49 0C105.909 0 107.281 0.186075 108.606 0.557498C109.93 0.929647 111.167 1.45008 112.316 2.11878C113.465 2.78785 114.512 3.59575 115.459 4.54175C116.404 5.48812 117.212 6.53879 117.881 7.69449C118.55 8.85019 119.071 10.0869 119.442 11.4047C119.814 12.7225 120 14.0981 120 15.5307C120 16.9633 119.814 18.3385 119.442 19.6563C119.071 20.9741 118.55 22.2043 117.881 23.3466C117.212 24.4885 116.404 25.5293 115.459 26.4684C114.512 27.4082 113.465 28.2158 112.316 28.8914C111.167 29.5674 109.93 30.0874 108.606 30.4523C107.281 30.8176 105.909 31 104.49 31C103.057 31 101.682 30.8176 100.364 30.4523C99.0456 30.0874 97.8122 29.5674 96.6634 28.8914C95.5146 28.2158 94.4704 27.4082 93.5312 26.4684C92.5916 25.5293 91.7839 24.4885 91.1083 23.3466C90.4324 22.2043 89.912 20.9741 89.5473 19.6563C89.1823 18.3385 89 16.9633 89 15.5307Z" fill="white"/>
<path fill-rule="evenodd" clip-rule="evenodd" d="M52.5514 16.2351L38.3037 23.8916C37.7195 24.2057 37 23.7996 37 23.1563V7.84368C37 7.20038 37.7195 6.79433 38.3037 7.10837L52.5514 14.7649C53.1495 15.0865 53.1495 15.9138 52.5514 16.2351ZM54.6067 4.61041C48.7486 -1.5368 39.2514 -1.5368 33.3933 4.61041C27.5356 10.7573 27.5356 20.723 33.3933 26.8703L44 38L54.6067 26.8703C60.4644 20.723 60.4644 10.7573 54.6067 4.61041Z" fill="white"/>
<path fill-rule="evenodd" clip-rule="evenodd" d="M16.6769 44.709C16.7714 44.7721 16.8493 44.8445 16.9095 44.9271C16.9697 45.0096 17 45.0941 17 45.1806C17 45.2908 16.9654 45.3852 16.8965 45.4635L16.2114 46.5009C16.065 46.6893 15.9142 46.7841 15.7592 46.7841C15.699 46.7841 15.6323 46.7702 15.5587 46.7426C15.4855 46.7153 15.4015 46.6699 15.307 46.6071C14.6864 46.2062 14.0337 45.8996 13.349 45.6878C12.6642 45.4753 11.9423 45.3497 11.1843 45.3102C10.073 45.3102 9.04742 45.4931 8.10843 45.8585C7.16907 46.2236 6.35701 46.7153 5.67224 47.332C4.98711 47.949 4.4509 48.6637 4.06326 49.4775C3.67526 50.2908 3.48162 51.1493 3.48162 52.0531C3.48162 53.0119 3.67959 53.8976 4.07624 54.7113C4.47218 55.5247 5.00442 56.2263 5.67224 56.8157C6.3397 57.4051 7.11499 57.8645 7.99845 58.1948C8.88154 58.5247 9.80972 58.6898 10.7837 58.6898C11.1367 58.6898 11.4901 58.6664 11.8435 58.6191C12.1965 58.5717 12.556 58.4914 12.9224 58.3776C13.2887 58.2635 13.6699 58.1181 14.0662 57.9412C14.4625 57.7642 14.8847 57.5462 15.3326 57.287C15.4963 57.2005 15.6301 57.1574 15.7332 57.1574C15.8883 57.1574 16.0307 57.2554 16.1598 57.4521L16.8965 58.5599C16.9567 58.6625 16.987 58.7565 16.987 58.843C16.987 59.0315 16.8835 59.1812 16.6769 59.291C15.8666 59.8255 14.9753 60.2438 14.0016 60.5461C13.0277 60.8487 11.9769 61 10.8482 61C9.93484 61 9.05824 60.8941 8.21805 60.6816C7.37822 60.4698 6.59392 60.1672 5.86624 59.7745C5.13784 59.3811 4.47434 58.9121 3.87575 58.3655C3.2768 57.8195 2.7644 57.2143 2.33781 56.5502C1.91123 55.8862 1.58164 55.1711 1.34906 54.4048C1.11647 53.6384 1 52.8392 1 52.0061C1 51.1809 1.11647 50.3852 1.34906 49.6189C1.58164 48.8529 1.91339 48.1355 2.3443 47.4675C2.77485 46.7995 3.28978 46.1907 3.88873 45.6405C4.48732 45.0902 5.15298 44.6205 5.88535 44.2318C6.61772 43.8427 7.40382 43.5401 8.24401 43.324C9.0842 43.1079 9.96081 43 10.8742 43C11.9509 43 12.9721 43.1454 13.9371 43.4361C14.9017 43.7269 15.8151 44.1512 16.6769 44.709Z" fill="white"/>
<path fill-rule="evenodd" clip-rule="evenodd" d="M23 43.5333C23 43.3876 23.0591 43.2624 23.1778 43.1576C23.2964 43.0524 23.4638 43 23.6804 43H25.2885C25.474 43 25.6389 43.0484 25.7834 43.1454C25.9275 43.2425 26 43.3717 26 43.5333V60.4663C26 60.8221 25.7627 61 25.2885 61H23.6804C23.2265 61 23 60.8221 23 60.4663V43.5333Z" fill="white"/>
<path fill-rule="evenodd" clip-rule="evenodd" d="M47.8095 61C47.6122 61 47.442 60.9111 47.2988 60.7335L35.567 46.5514V60.4667C35.567 60.8224 35.3608 61 34.9487 61H33.5913C33.1969 61 33 60.8224 33 60.4667V43.5577C33 43.396 33.0536 43.2628 33.1612 43.1576C33.2688 43.0528 33.4121 43 33.5913 43H35.3923C35.6251 43 35.813 43.0889 35.9566 43.2665L47.3929 56.9758V43.4488C47.4465 43.1498 47.6437 43 47.9842 43H49.3416C49.5028 43 49.6528 43.0487 49.7919 43.1454C49.9306 43.2425 50 43.372 50 43.5333V60.4667C50 60.8224 49.7803 61 49.3416 61H47.8095Z" fill="white"/>
<path fill-rule="evenodd" clip-rule="evenodd" d="M69.3601 43C69.769 43 69.9732 43.1938 69.9732 43.5817V44.782C69.9732 44.9355 69.9222 45.0688 69.8199 45.1817C69.7176 45.295 69.5554 45.3515 69.3333 45.3515H58.5867V50.3335H67.0402C67.2001 50.3335 67.3378 50.3758 67.4535 50.4607C67.5688 50.5456 67.6265 50.689 67.6265 50.8909V52.127C67.6265 52.2728 67.5778 52.4019 67.4799 52.5152C67.3821 52.6285 67.2355 52.685 67.0402 52.685H58.5867V58.6485H69.3865C69.7954 58.6485 70 58.8382 70 59.218V60.4667C70 60.8221 69.8043 61 69.4133 61H56.5867C56.1953 61 56 60.8302 56 60.491V43.5574C56 43.186 56.1953 43 56.5867 43H69.3601Z" fill="white"/>
<path fill-rule="evenodd" clip-rule="evenodd" d="M108 55H116L112.037 46L108 55ZM106.468 60.5515C106.411 60.6889 106.331 60.7981 106.227 60.8786C106.123 60.9598 105.99 61 105.83 61H104.554C104.184 61 104 60.8586 104 60.5756C104 60.5194 104.002 60.4727 104.006 60.4362C104.01 60.3997 104.016 60.3659 104.024 60.3331C104.032 60.3009 104.04 60.2725 104.048 60.2485L110.995 43.4485C111.01 43.4082 111.031 43.3615 111.055 43.3091C111.079 43.2567 111.111 43.208 111.151 43.1637C111.191 43.1194 111.249 43.0808 111.325 43.0487C111.402 43.0162 111.504 43 111.633 43H112.427C112.548 43 112.646 43.0162 112.722 43.0487C112.798 43.0808 112.857 43.1194 112.897 43.1637C112.937 43.208 112.969 43.2567 112.993 43.3091C113.017 43.3615 113.037 43.4082 113.053 43.4485L119.94 60.2485C119.948 60.2888 119.956 60.329 119.964 60.3696C119.972 60.4102 119.98 60.4484 119.988 60.4846C119.996 60.5211 120 60.5515 120 60.5756C120 60.8586 119.815 61 119.446 61H118.17C118.009 61 117.877 60.9598 117.773 60.8786C117.668 60.7981 117.588 60.6889 117.532 60.5515L116.207 57.2179H107.756C107.475 57.9373 107.218 58.588 106.986 59.1697C106.753 59.7514 106.58 60.212 106.468 60.5515Z" fill="white"/>
<path fill-rule="evenodd" clip-rule="evenodd" d="M86.336 55.9003C86.1421 55.9003 85.971 55.7509 85.8211 55.452L80.5894 47.228L80.5605 60.4669C80.5605 60.8226 80.367 61 79.9796 61H78.6072C78.2023 61 78 60.8226 78 60.4669L78.0081 43.5335C78.0081 43.3719 78.074 43.2427 78.206 43.1454C78.3379 43.0485 78.483 43 78.6417 43H80.6741C80.9555 43 81.149 43.1498 81.2549 43.4486L86.9828 52.9092L92.7634 43.4486C92.8074 43.3029 92.8777 43.1922 92.9745 43.1151C93.0712 43.0384 93.1812 43 93.3047 43H95.403C95.5877 43 95.7306 43.0525 95.8318 43.1579C95.9329 43.2629 95.9835 43.3877 95.9835 43.5335L96 60.4669C96 60.8226 95.8065 61 95.4192 61H94.0467C93.6418 61 93.4395 60.8226 93.4395 60.4669L93.4106 47.2041L88.1441 55.452C87.9942 55.7509 87.8183 55.9003 87.616 55.9003H86.336Z" fill="white"/>
</svg>
