<svg id="Layer_1" data-name="Layer 1" xmlns="http://www.w3.org/2000/svg" viewBox="0 0 36 36"><defs><style>.cls-1,.cls-2{fill:#ffed00;}.cls-2{fill-rule:evenodd;}</style></defs><title>insta</title><path class="cls-1" d="M385.73,288.24h.42a.34.34,0,0,1,.26.38c0,.06,0,.11,0,.17q0,1.68,0,3.36,0,1.85,0,3.7c0,.34,0,.68,0,1s.09.3.29.3a8.24,8.24,0,0,0,.84,0,.31.31,0,0,0,.29-.28,2.05,2.05,0,0,0,0-.31c0-.39,0-.78,0-1.17q0-3.35,0-6.71c0-.23,0-.35.28-.42H407.5a6.22,6.22,0,0,1,1.46.16,7.06,7.06,0,0,1,3.77,2.31,6.66,6.66,0,0,1,1.56,3.21,11.33,11.33,0,0,1,.14,2c0,1.28,0,2.56,0,3.84,0,.2-.06.25-.26.26H403.31a.8.8,0,0,1-.59-.23,8.74,8.74,0,0,0-1.54-1.17,9,9,0,0,0-6.41-1.19,9.19,9.19,0,0,0-4.65,2.36.84.84,0,0,1-.61.24H378.71c-.22,0-.27-.05-.27-.27s0-.64,0-1c0-1.35-.07-2.71,0-4.06a6.78,6.78,0,0,1,.6-2.36,7.52,7.52,0,0,1,2.33-2.78l.05,0a.4.4,0,0,1,0,0q0,3.21,0,6.41c0,.3,0,.59,0,.89s.09.28.29.29a7.47,7.47,0,0,0,.81,0,.31.31,0,0,0,.29-.31,2.71,2.71,0,0,0,0-.34q0-3.63,0-7.25a1.17,1.17,0,0,0,0-.16c0-.24,0-.27.2-.37a1.93,1.93,0,0,1,.68-.21c.17,0,.22,0,.19.2a1.32,1.32,0,0,0,0,.19q0,3.28,0,6.56c0,.48,0,1,0,1.44,0,.2.08.29.28.3s.52,0,.78,0a.36.36,0,0,0,.37-.36,3,3,0,0,0,0-.41c0-1.28,0-2.56,0-3.85s0-2.54,0-3.81C385.39,288.36,385.42,288.32,385.73,288.24Zm19.32,6.06h0c0,.67,0,1.33,0,2a1.07,1.07,0,0,0,1.13,1.08H410a1.1,1.1,0,0,0,1.15-1.14q0-1.94,0-3.88a1.08,1.08,0,0,0-1.13-1.14q-1.91,0-3.83,0a1.06,1.06,0,0,0-1.12,1.09C405,293,405.06,293.63,405.06,294.29Z" transform="translate(-378.43 -288.24)"/><path class="cls-2" d="M388.92,301.09a9.07,9.07,0,0,0-1.58,6.77,8.84,8.84,0,0,0,3,5.4,9.18,9.18,0,0,0,11.59.45,8.89,8.89,0,0,0,3.56-5.91,9.08,9.08,0,0,0-1.59-6.72h10.27a.25.25,0,0,1,.25.25c0,.21,0,.41,0,.62q0,2.23,0,4.46c0,3.63,0,7.26,0,10.89a6.7,6.7,0,0,1-1.86,4.63,6.91,6.91,0,0,1-3.92,2.17,6.64,6.64,0,0,1-1.19.11c-7.31,0-14.62,0-21.94,0a7,7,0,0,1-6.83-5.33,7.71,7.71,0,0,1-.22-1.9q0-5.08,0-10.16c0-1.73,0-3.47,0-5.2a2.17,2.17,0,0,1,0-.23.31.31,0,0,1,.34-.32h10.13Z" transform="translate(-378.43 -288.24)"/><path class="cls-2" d="M396.45,299.34a7.06,7.06,0,1,1-7.13,7A7.07,7.07,0,0,1,396.45,299.34Zm5.23,7.14a5.22,5.22,0,1,0-5.08,5.13A5.19,5.19,0,0,0,401.68,306.49Z" transform="translate(-378.43 -288.24)"/></svg>