<svg width="70" height="70" viewBox="0 0 70 70" fill="none" xmlns="http://www.w3.org/2000/svg">
<circle cx="35" cy="35" r="35" fill="url(#paint0_linear)"/>
<path fill-rule="evenodd" clip-rule="evenodd" d="M29.1077 16.1606L35.0002 8L40.8925 16.1606H29.1077ZM28.4999 34.9998L22 26.0047L15.5 34.9999L9 26.0047H22L21.9999 26.0046H35.0001H35.0002H48L40.8925 16.1607H55.1078L48.0001 26.0046H48.0002L41.4999 34.9998L35.0002 26.0046L28.4999 34.9998ZM54.5 34.9999L48.0002 26.0047H61V26.0049L54.5 34.9999ZM41.5001 35L47.9999 43.9953H34.9999H34.9998L22.0003 43.9952L22 43.9953L22 43.9953H9L15.4998 35.0001L21.9999 43.9952L28.5001 35L34.9999 43.9952L41.5001 35ZM22.0003 43.9952L29.1077 53.8391H14.8925L22.0003 43.9952ZM48.0003 43.9953H60.9998L54.5 35.0001L48 43.9953H48.0002L40.8925 53.8391H29.1078L35.0001 62L40.8927 53.8391H55.1077L48.0003 43.9953ZM14.8926 16.1607L21.9998 26.0046L29.1076 16.1607H14.8926Z" fill="white"/>
<defs>
<linearGradient id="paint0_linear" x1="15.6954" y1="88.1554" x2="88.1555" y2="54.3044" gradientUnits="userSpaceOnUse">
<stop stop-color="#2FCFCD"/>
<stop offset="1" stop-color="#666AD3"/>
</linearGradient>
</defs>
</svg>
